<?xml version="1.0" encoding="utf-8"?>
<!-- Generator: Adobe Illustrator 21.0.0, SVG Export Plug-In . SVG Version: 6.00 Build 0)  -->
<svg version="1.1" id="Layer_1" xmlns="http://www.w3.org/2000/svg" xmlns:xlink="http://www.w3.org/1999/xlink" x="0px" y="0px"
	 viewBox="0 0 600 600" style="enable-background:new 0 0 600 600;" xml:space="preserve">
<style type="text/css">
	.st0{fill:#09A1A1;}
	.st1{fill:#001717;}
	.st2{fill:#015051;}
	.st3{fill:#016B6B;}
	.st4{fill:#002122;}
	.st5{fill:#013535;}
	.st6{fill:#FFFFFF;}
</style>
<g>
	<rect x="10" y="10" class="st0" width="580" height="580"/>
	<g>
		<g>
			<polygon class="st1" points="279.9,199.9 279.4,199.7 279.4,148.8 280,148.3 280.2,148 468.4,269.9 279.9,200 			"/>
			<polygon class="st1" points="279.9,340.1 279.9,340 468.4,270 280.1,392 280,391.7 279.4,391.7 279.4,340.2 			"/>
			<polygon class="st2" points="366.7,67.2 468.4,269.9 280.2,148 279.9,147.8 280,147.7 366.1,67.8 			"/>
			<polygon class="st2" points="468.4,270 366.7,472.8 366.1,472.2 280,392.3 279.9,392.2 280.1,392 			"/>
			<polygon class="st3" points="279.9,147.8 280.2,148 280,148.3 279.4,148.3 142.1,148.3 140.9,147.8 175.3,67.7 175.3,67.7 
				175.5,67.8 366.1,67.8 280,147.7 			"/>
			<polygon class="st3" points="280,148.3 279.4,148.8 279.4,148.3 			"/>
			<polygon class="st3" points="280,391.7 280.1,392 279.9,392.2 280,392.3 366.1,472.2 175.5,472.2 175.3,472.3 140.9,392.2 
				142.1,391.7 278.8,391.7 279.4,392.3 279.4,391.7 			"/>
			<polygon class="st2" points="279.9,200 468.4,269.9 468.4,270 279.9,340 279.9,340.1 279.4,340.2 279.4,340.1 279.4,270.1 
				279.4,269.9 279.4,199.9 279.4,199.7 279.9,199.9 			"/>
			<polygon class="st3" points="279.4,391.7 279.4,392.3 278.8,391.7 			"/>
			<polygon class="st4" points="279.4,340.2 279.4,391.7 278.8,391.7 239.6,355.2 			"/>
			<polygon class="st3" points="279.4,340.1 279.4,340.2 239.6,355.2 149.2,270.1 149.2,269.9 239.6,184.8 279.4,199.7 279.4,199.9 
				279.4,269.9 279.4,270.1 			"/>
			<polygon class="st4" points="279.4,148.8 279.4,199.7 239.6,184.8 			"/>
			<polygon class="st5" points="279.4,148.3 279.4,148.8 239.6,184.8 142.1,148.3 			"/>
			<polygon class="st5" points="278.8,391.7 142.1,391.7 239.6,355.2 			"/>
		</g>
	</g>
	<path class="st6" d="M215.5,504.5h15.8l5.1,19.8l1.7,7.8h0.3l1.7-7.8l4.8-19.8h15.8v60.6h-12.9v-14.3c0-1.8,0.1-4.1,0.2-6.8
		c0.2-2.8,0.3-5.6,0.5-8.6c0.2-3,0.4-5.8,0.6-8.5c0.3-2.7,0.5-5,0.6-6.8h-0.3l-5,18l-3.2,10.9h-6.9l-3.2-10.9l-4.8-18h-0.4
		c0.2,1.8,0.4,4.1,0.6,6.8c0.3,2.7,0.5,5.6,0.6,8.5c0.2,3,0.4,5.8,0.5,8.6c0.2,2.8,0.2,5.1,0.2,6.8v14.3h-12.7L215.5,504.5
		L215.5,504.5z"/>
	<path class="st6" d="M312.7,552.3H296l-3,12.9h-16.4l18.3-60.6h19.4l18.3,60.6h-17L312.7,552.3z M309.8,539.9l-0.9-4.2
		c-0.7-2.9-1.4-6.1-2.1-9.5c-0.7-3.4-1.5-6.7-2.2-9.7h-0.4c-0.7,3.1-1.4,6.4-2.1,9.7c-0.7,3.4-1.4,6.6-2.1,9.5l-0.9,4.2H309.8
		L309.8,539.9z"/>
	<path class="st6" d="M361.1,534l-16.5-29.5h17.9l4.8,9.9c0.7,1.4,1.4,3,2.1,4.6c0.7,1.7,1.6,3.5,2.4,5.5h0.4c0.7-2,1.4-3.8,2-5.5
		c0.7-1.7,1.3-3.2,2-4.6l4.3-9.9h17.2l-16.5,30.2l17.5,30.4h-17.9l-5.6-10.8c-0.9-1.6-1.7-3.2-2.4-4.8c-0.7-1.6-1.5-3.4-2.3-5.2
		h-0.4c-0.7,1.9-1.4,3.6-2.1,5.2c-0.7,1.6-1.4,3.2-2.2,4.8l-5.2,10.8h-17.2L361.1,534z"/>
</g>
</svg>
