<?xml version="1.0" encoding="utf-8"?>
<!-- Generator: Adobe Illustrator 21.0.0, SVG Export Plug-In . SVG Version: 6.00 Build 0)  -->
<svg version="1.1" id="Layer_2" xmlns="http://www.w3.org/2000/svg" xmlns:xlink="http://www.w3.org/1999/xlink" x="0px" y="0px"
	 viewBox="0 0 600 600" style="enable-background:new 0 0 600 600;" xml:space="preserve">
<style type="text/css">
	.st0{clip-path:url(#SVGID_2_);fill:#381D3F;}
	.st1{fill:#E579FF;}
</style>
<g>
	<g>
		<defs>
			<polyline id="SVGID_1_" points="565.8,30.4 34.2,30.4 34.2,547.6 565.8,547.6 565.8,30.4 			"/>
		</defs>
		<clipPath id="SVGID_2_">
			<use xlink:href="#SVGID_1_"  style="overflow:visible;"/>
		</clipPath>
		<rect x="28" y="30.4" class="st0" width="544" height="528.5"/>
	</g>
	<path class="st1" d="M34.2,30.4h531.7v517.2H34.2V30.4z M10,571.8h580V6.2H10V571.8z M358,245c0-2.9,0-9.9-1.2-23.4
		c0-1.9,0.2-2.4,1.9-3.1c14.7-6,49.3-16.7,88.5-16.7c1.9,0,2.9,0.5,2.9,2.4v35c0,1.9-0.7,2.4-2.7,2.4c-15.2-0.7-37.2,1.2-45.7,4.8
		v152.2c0,1.9-0.7,2.9-2.9,2.9h-37.9c-1.9,0-2.9-0.7-2.9-2.9L358,245L358,245z M203.3,267c5.6,0.5,9.9,0.5,19.6,0.5
		c28.3,0,54.9-9.9,54.9-48.3c0-30.7-18.9-46.2-51.2-46.2c-9.7,0-18.8,0.5-23.2,0.7V267z M160.6,138.7c0-1.7,0.5-2.9,2.4-2.9
		c15.5-0.7,38.2-1.2,62.1-1.2c66.9,0,96.2,36.7,96.2,83.9c0,61.4-44.5,87.7-99.1,87.7c-9.2,0-12.3-0.5-18.9-0.5v92.8
		c0,1.9-0.7,2.9-2.9,2.9h-37.2c-1.9,0-2.9-0.7-2.9-2.9V138.7H160.6z"/>
</g>
</svg>
