<?xml version="1.0" encoding="utf-8"?>
<!-- Generator: Adobe Illustrator 21.0.0, SVG Export Plug-In . SVG Version: 6.00 Build 0)  -->
<svg version="1.1" id="Layer_1" xmlns="http://www.w3.org/2000/svg" xmlns:xlink="http://www.w3.org/1999/xlink" x="0px" y="0px"
	 viewBox="0 0 2500 2435" style="enable-background:new 0 0 2500 2435;" xml:space="preserve">
<style type="text/css">
	.st0{fill:#EB43A3;}
	.st1{fill:#412534;}
	.st2{opacity:0.302;enable-background:new    ;}
</style>
<path class="st0" d="M16,0.1h2484v2419.3H16V0.1z"/>
<path class="st1" d="M205.2,194.3h2100.6v2030.8H205.2V194.3z"/>
<path class="st2" d="M1808.1,637.2l-99.6,448L971.8,692L907.1,1155l-124.4,562.5l721.8,507.7h801.4V1000.6L1808.1,637.2z
	 M205.2,194.2h2100.6v69.7H205.2V194.2z"/>
<g>
	<path class="st0" d="M974.4,692v1025H787.3V692H974.4z M1803.1,637.2v871.4c0,76,3,158.2,6.1,208.3H1642l-7.6-117.1h-3
		c-44.1,82.1-133.8,133.8-241.8,133.8c-176.4,0-316.3-150.5-316.3-378.7c-1.5-247.9,153.6-395.4,331.5-395.4
		c101.9,0,174.9,42.6,208.3,97.3h3V637.2H1803.1z M1616.1,1285.1c0-15.2-1.5-33.5-4.6-48.7c-16.7-73-76-132.3-161.2-132.3
		c-120.1,0-187,106.4-187,244.8c0,135.3,66.9,234.2,185.5,234.2c76,0,143-51.7,161.2-132.3c4.6-16.7,6.1-35,6.1-54.7L1616.1,1285.1
		L1616.1,1285.1z"/>
</g>
</svg>
