<?xml version="1.0" encoding="utf-8"?>
<!-- Generator: Adobe Illustrator 21.0.0, SVG Export Plug-In . SVG Version: 6.00 Build 0)  -->
<svg version="1.1" id="Layer_1" xmlns="http://www.w3.org/2000/svg" xmlns:xlink="http://www.w3.org/1999/xlink" x="0px" y="0px"
	 viewBox="0 0 500 486.9" style="enable-background:new 0 0 500 486.9;" xml:space="preserve">
<style type="text/css">
	.st0{fill:#AED4EA;}
	.st1{clip-path:url(#SVGID_4_);}
	.st2{clip-path:url(#SVGID_6_);fill:#B0D5E9;}
	.st3{clip-path:url(#SVGID_4_);fill-rule:evenodd;clip-rule:evenodd;fill:#B0D5E9;}
	.st4{clip-path:url(#SVGID_8_);}
	.st5{clip-path:url(#SVGID_10_);fill:#ADD3E9;}
	.st6{clip-path:url(#SVGID_8_);fill-rule:evenodd;clip-rule:evenodd;fill:#ADD3E9;}
</style>
<g>
	<rect x="0.3" class="st0" width="499.4" height="486.9"/>
	<g>
		<defs>
			<rect id="SVGID_1_" x="21.1" y="20.8" width="457.7" height="445.3"/>
		</defs>
		<use xlink:href="#SVGID_1_"  style="overflow:visible;fill:#303D44;"/>
		<clipPath id="SVGID_2_">
			<use xlink:href="#SVGID_1_"  style="overflow:visible;"/>
		</clipPath>
		<g style="clip-path:url(#SVGID_2_);">
			
				<image style="overflow:visible;" width="458" height="447" xlink:href="87C9696AE63D29BE.png"  transform="matrix(1 0 0 1 21 20)">
			</image>
		</g>
	</g>
	<g>
		<defs>
			<polygon id="SVGID_3_" points="261.2,300.9 252.6,340.2 172,340.2 125.8,340.2 125.8,300.9 125.8,112.1 172,112.1 172,300.9 
				261.2,300.9 			"/>
		</defs>
		<clipPath id="SVGID_4_">
			<use xlink:href="#SVGID_3_"  style="overflow:visible;"/>
		</clipPath>
		<g class="st1">
			<defs>
				<rect id="SVGID_5_" x="125.8" y="112.1" width="135.5" height="228.2"/>
			</defs>
			<clipPath id="SVGID_6_">
				<use xlink:href="#SVGID_5_"  style="overflow:visible;"/>
			</clipPath>
			<g transform="matrix(1 0 0 1 7.629395e-06 0)" style="clip-path:url(#SVGID_6_);">
				
					<image style="overflow:visible;" width="92" height="150" xlink:href="87C9696AE63D29C2.png"  transform="matrix(1.5632 0 0 -1.5632 122.0674 344.5557)">
				</image>
			</g>
			<polygon class="st2" points="125.8,340.3 125.7,112.1 261.2,112 261.3,340.3 			"/>
		</g>
		<polygon class="st3" points="125.8,340.3 125.7,300.9 125.7,112.1 172,112 172.1,300.9 261.2,300.8 252.7,340.3 		"/>
	</g>
	<g>
		<defs>
			<path id="SVGID_7_" d="M283.1,164.7h37.1c5.7,5.3,7.7,13.7,9.1,22.5c0,0,9.9-17.3,28.9-24.1c5.8-2.1,12-2.8,18.1-3
				c2.8-0.1,4.5,0.6,4.5,5v41.7c0,0-26.8-5.7-51.5,17.7v115.7h-46.2V164.7L283.1,164.7z"/>
		</defs>
		<use xlink:href="#SVGID_7_"  style="overflow:visible;fill-rule:evenodd;clip-rule:evenodd;fill:#ADD3E9;"/>
		<clipPath id="SVGID_8_">
			<use xlink:href="#SVGID_7_"  style="overflow:visible;"/>
		</clipPath>
		<g class="st4">
			<defs>
				<rect id="SVGID_9_" x="283.1" y="160" width="97.7" height="180.2"/>
			</defs>
			<use xlink:href="#SVGID_9_"  style="overflow:visible;fill:#ADD3E9;"/>
			<clipPath id="SVGID_10_">
				<use xlink:href="#SVGID_9_"  style="overflow:visible;"/>
			</clipPath>
			<g style="clip-path:url(#SVGID_10_);">
				
					<image style="overflow:visible;" width="68" height="120" xlink:href="87C9696AE63D29C5.png"  transform="matrix(1.5632 0 0 -1.5632 278.4912 344.5234)">
				</image>
			</g>
			<polygon class="st5" points="283.1,340.3 283,160 380.9,159.9 381,340.3 			"/>
		</g>
		<path class="st6" d="M283.1,340.3L283,164.7l37.2-0.1c6,5.6,7.9,14.6,9.2,22.6c0-0.3,10-17.5,28.8-24.2c5.1-1.8,11-2.8,18.1-3
			l0.4,0c2.7,0,4.2,0.8,4.2,5.1v41.7c0,0,0,0-0.1,0c-0.5,0-3.3-0.5-7.6-0.5c-9.2,0-27.1,2.4-43.9,18.3l0,115.7H283.1z"/>
	</g>
</g>
</svg>
